<?xml version="1.0" encoding="UTF-8" standalone="no"?>
<!DOCTYPE svg PUBLIC "-//W3C//DTD SVG 1.1//EN"
 "http://www.w3.org/Graphics/SVG/1.1/DTD/svg11.dtd">
<!-- Generated by graphviz version 2.43.0 (0)
 -->
<!-- Title: G Pages: 1 -->
<svg width="660pt" height="476pt"
 viewBox="0.00 0.00 659.53 476.00" xmlns="http://www.w3.org/2000/svg" xmlns:xlink="http://www.w3.org/1999/xlink">
<g id="graph0" class="graph" transform="scale(1 1) rotate(0) translate(4 472)">
<title>G</title>
<polygon fill="white" stroke="transparent" points="-4,4 -4,-472 655.53,-472 655.53,4 -4,4"/>
<!-- ref_AppliedPTransform_Read&#45;Input_2 -->
<g id="node1" class="node">
<title>ref_AppliedPTransform_Read&#45;Input_2</title>
<g id="a_node1"><a xlink:href="javascript:click('ref_AppliedPTransform_Read-Input_2')" xlink:title="Read Input">
<path fill="#fff6dd" stroke="#ff570b" d="M515.5,-468C515.5,-468 444.5,-468 444.5,-468 438.5,-468 432.5,-462 432.5,-456 432.5,-456 432.5,-444 432.5,-444 432.5,-438 438.5,-432 444.5,-432 444.5,-432 515.5,-432 515.5,-432 521.5,-432 527.5,-438 527.5,-444 527.5,-444 527.5,-456 527.5,-456 527.5,-462 521.5,-468 515.5,-468"/>
<text text-anchor="middle" x="480" y="-446.3" font-family="Times,serif" font-size="14.00">Read Input</text>
</a>
</g>
</g>
<!-- ref_AppliedPTransform_Branch&#45;branch_1_11 -->
<g id="node2" class="node">
<title>ref_AppliedPTransform_Branch&#45;branch_1_11</title>
<g id="a_node2"><a xlink:href="javascript:click('ref_AppliedPTransform_Branch-branch_1_11')" xlink:title="Branch: branch_1">
<path fill="#fff6dd" stroke="#ff570b" d="M376,-396C376,-396 258,-396 258,-396 252,-396 246,-390 246,-384 246,-384 246,-372 246,-372 246,-366 252,-360 258,-360 258,-360 376,-360 376,-360 382,-360 388,-366 388,-372 388,-372 388,-384 388,-384 388,-390 382,-396 376,-396"/>
<text text-anchor="middle" x="317" y="-374.3" font-family="Times,serif" font-size="14.00">Branch: branch_1</text>
</a>
</g>
</g>
<!-- ref_AppliedPTransform_Read&#45;Input_2&#45;&gt;ref_AppliedPTransform_Branch&#45;branch_1_11 -->
<g id="edge1" class="edge">
<title>ref_AppliedPTransform_Read&#45;Input_2&#45;&gt;ref_AppliedPTransform_Branch&#45;branch_1_11</title>
<path fill="none" stroke="#ff570b" d="M440.13,-431.88C417.84,-422.31 389.88,-410.3 366.24,-400.15"/>
<polygon fill="#ff570b" stroke="#ff570b" points="367.31,-396.8 356.74,-396.07 364.55,-403.23 367.31,-396.8"/>
</g>
<!-- ref_AppliedPTransform_Group&#45;Results_27 -->
<g id="node3" class="node">
<title>ref_AppliedPTransform_Group&#45;Results_27</title>
<g id="a_node3"><a xlink:href="javascript:click('ref_AppliedPTransform_Group-Results_27')" xlink:title="Group Results">
<path fill="#fff6dd" stroke="#ff570b" d="M617.5,-108C617.5,-108 522.5,-108 522.5,-108 516.5,-108 510.5,-102 510.5,-96 510.5,-96 510.5,-84 510.5,-84 510.5,-78 516.5,-72 522.5,-72 522.5,-72 617.5,-72 617.5,-72 623.5,-72 629.5,-78 629.5,-84 629.5,-84 629.5,-96 629.5,-96 629.5,-102 623.5,-108 617.5,-108"/>
<text text-anchor="middle" x="570" y="-86.3" font-family="Times,serif" font-size="14.00">Group Results</text>
</a>
</g>
</g>
<!-- ref_AppliedPTransform_Read&#45;Input_2&#45;&gt;ref_AppliedPTransform_Group&#45;Results_27 -->
<g id="edge2" class="edge">
<title>ref_AppliedPTransform_Read&#45;Input_2&#45;&gt;ref_AppliedPTransform_Group&#45;Results_27</title>
<path fill="none" stroke="#ff570b" d="M527.52,-443.6C559.62,-437.43 600.48,-424.22 625,-396 651.53,-365.47 644,-347.45 644,-307 644,-307 644,-307 644,-233 644,-187.9 614.29,-142.94 592.52,-116.05"/>
<polygon fill="#ff570b" stroke="#ff570b" points="595.15,-113.74 586.06,-108.31 589.78,-118.23 595.15,-113.74"/>
</g>
<!-- ref_AppliedPTransform_Filter&#45;Branch&#45;branch_1&#45;approved_17 -->
<g id="node4" class="node">
<title>ref_AppliedPTransform_Filter&#45;Branch&#45;branch_1&#45;approved_17</title>
<g id="a_node4"><a xlink:href="javascript:click('ref_AppliedPTransform_Filter-Branch-branch_1-approved_17')" xlink:title="Filter Branch: branch_1.approved">
<path fill="#fff6dd" stroke="#ff570b" d="M346.5,-324C346.5,-324 113.5,-324 113.5,-324 107.5,-324 101.5,-318 101.5,-312 101.5,-312 101.5,-300 101.5,-300 101.5,-294 107.5,-288 113.5,-288 113.5,-288 346.5,-288 346.5,-288 352.5,-288 358.5,-294 358.5,-300 358.5,-300 358.5,-312 358.5,-312 358.5,-318 352.5,-324 346.5,-324"/>
<text text-anchor="middle" x="230" y="-302.3" font-family="Times,serif" font-size="14.00">Filter Branch: branch_1.approved</text>
</a>
</g>
</g>
<!-- ref_AppliedPTransform_Branch&#45;branch_1_11&#45;&gt;ref_AppliedPTransform_Filter&#45;Branch&#45;branch_1&#45;approved_17 -->
<g id="edge3" class="edge">
<title>ref_AppliedPTransform_Branch&#45;branch_1_11&#45;&gt;ref_AppliedPTransform_Filter&#45;Branch&#45;branch_1&#45;approved_17</title>
<path fill="none" stroke="#ff570b" d="M295.49,-359.7C284.54,-350.88 271.05,-340.03 259.18,-330.47"/>
<polygon fill="#ff570b" stroke="#ff570b" points="261.25,-327.64 251.26,-324.1 256.86,-333.09 261.25,-327.64"/>
</g>
<!-- ref_AppliedPTransform_Filter&#45;Branch&#45;branch_1&#45;denied_23 -->
<g id="node5" class="node">
<title>ref_AppliedPTransform_Filter&#45;Branch&#45;branch_1&#45;denied_23</title>
<g id="a_node5"><a xlink:href="javascript:click('ref_AppliedPTransform_Filter-Branch-branch_1-denied_23')" xlink:title="Filter Branch: branch_1.denied">
<path fill="#fff6dd" stroke="#ff570b" d="M603.5,-324C603.5,-324 388.5,-324 388.5,-324 382.5,-324 376.5,-318 376.5,-312 376.5,-312 376.5,-300 376.5,-300 376.5,-294 382.5,-288 388.5,-288 388.5,-288 603.5,-288 603.5,-288 609.5,-288 615.5,-294 615.5,-300 615.5,-300 615.5,-312 615.5,-312 615.5,-318 609.5,-324 603.5,-324"/>
<text text-anchor="middle" x="496" y="-302.3" font-family="Times,serif" font-size="14.00">Filter Branch: branch_1.denied</text>
</a>
</g>
</g>
<!-- ref_AppliedPTransform_Branch&#45;branch_1_11&#45;&gt;ref_AppliedPTransform_Filter&#45;Branch&#45;branch_1&#45;denied_23 -->
<g id="edge4" class="edge">
<title>ref_AppliedPTransform_Branch&#45;branch_1_11&#45;&gt;ref_AppliedPTransform_Filter&#45;Branch&#45;branch_1&#45;denied_23</title>
<path fill="none" stroke="#ff570b" d="M360.79,-359.88C385.58,-350.18 416.78,-337.98 442.96,-327.74"/>
<polygon fill="#ff570b" stroke="#ff570b" points="444.31,-330.97 452.35,-324.07 441.76,-324.45 444.31,-330.97"/>
</g>
<!-- ref_AppliedPTransform_Write&#45;Output_35 -->
<g id="node11" class="node">
<title>ref_AppliedPTransform_Write&#45;Output_35</title>
<g id="a_node11"><a xlink:href="javascript:click('ref_AppliedPTransform_Write-Output_35')" xlink:title="Write Output">
<path fill="#fff6dd" stroke="#ff570b" d="M613,-36C613,-36 527,-36 527,-36 521,-36 515,-30 515,-24 515,-24 515,-12 515,-12 515,-6 521,0 527,0 527,0 613,0 613,0 619,0 625,-6 625,-12 625,-12 625,-24 625,-24 625,-30 619,-36 613,-36"/>
<text text-anchor="middle" x="570" y="-14.3" font-family="Times,serif" font-size="14.00">Write Output</text>
</a>
</g>
</g>
<!-- ref_AppliedPTransform_Group&#45;Results_27&#45;&gt;ref_AppliedPTransform_Write&#45;Output_35 -->
<g id="edge12" class="edge">
<title>ref_AppliedPTransform_Group&#45;Results_27&#45;&gt;ref_AppliedPTransform_Write&#45;Output_35</title>
<path fill="none" stroke="#ff570b" d="M570,-71.7C570,-63.98 570,-54.71 570,-46.11"/>
<polygon fill="#ff570b" stroke="#ff570b" points="573.5,-46.1 570,-36.1 566.5,-46.1 573.5,-46.1"/>
</g>
<!-- ref_AppliedPTransform_Terminate&#45;approved_24 -->
<g id="node7" class="node">
<title>ref_AppliedPTransform_Terminate&#45;approved_24</title>
<g id="a_node7"><a xlink:href="javascript:click('ref_AppliedPTransform_Terminate-approved_24')" xlink:title="Terminate: approved">
<path fill="#fff6dd" stroke="#ff570b" d="M346.5,-252C346.5,-252 205.5,-252 205.5,-252 199.5,-252 193.5,-246 193.5,-240 193.5,-240 193.5,-228 193.5,-228 193.5,-222 199.5,-216 205.5,-216 205.5,-216 346.5,-216 346.5,-216 352.5,-216 358.5,-222 358.5,-228 358.5,-228 358.5,-240 358.5,-240 358.5,-246 352.5,-252 346.5,-252"/>
<text text-anchor="middle" x="276" y="-230.3" font-family="Times,serif" font-size="14.00">Terminate: approved</text>
</a>
</g>
</g>
<!-- ref_AppliedPTransform_Filter&#45;Branch&#45;branch_1&#45;approved_17&#45;&gt;ref_AppliedPTransform_Terminate&#45;approved_24 -->
<g id="edge6" class="edge">
<title>ref_AppliedPTransform_Filter&#45;Branch&#45;branch_1&#45;approved_17&#45;&gt;ref_AppliedPTransform_Terminate&#45;approved_24</title>
<path fill="none" stroke="#ff570b" d="M241.37,-287.7C246.72,-279.56 253.2,-269.69 259.11,-260.7"/>
<polygon fill="#ff570b" stroke="#ff570b" points="262.19,-262.38 264.76,-252.1 256.34,-258.54 262.19,-262.38"/>
</g>
<!-- ref_AppliedPTransform_Terminate&#45;denied_25 -->
<g id="node9" class="node">
<title>ref_AppliedPTransform_Terminate&#45;denied_25</title>
<g id="a_node9"><a xlink:href="javascript:click('ref_AppliedPTransform_Terminate-denied_25')" xlink:title="Terminate: denied">
<path fill="#fff6dd" stroke="#ff570b" d="M557,-252C557,-252 435,-252 435,-252 429,-252 423,-246 423,-240 423,-240 423,-228 423,-228 423,-222 429,-216 435,-216 435,-216 557,-216 557,-216 563,-216 569,-222 569,-228 569,-228 569,-240 569,-240 569,-246 563,-252 557,-252"/>
<text text-anchor="middle" x="496" y="-230.3" font-family="Times,serif" font-size="14.00">Terminate: denied</text>
</a>
</g>
</g>
<!-- ref_AppliedPTransform_Filter&#45;Branch&#45;branch_1&#45;denied_23&#45;&gt;ref_AppliedPTransform_Terminate&#45;denied_25 -->
<g id="edge8" class="edge">
<title>ref_AppliedPTransform_Filter&#45;Branch&#45;branch_1&#45;denied_23&#45;&gt;ref_AppliedPTransform_Terminate&#45;denied_25</title>
<path fill="none" stroke="#ff570b" d="M496,-287.7C496,-279.98 496,-270.71 496,-262.11"/>
<polygon fill="#ff570b" stroke="#ff570b" points="499.5,-262.1 496,-252.1 492.5,-262.1 499.5,-262.1"/>
</g>
<!-- ref_AppliedPTransform_Create&#45;Filter&#45;Value&#45;approved_12 -->
<g id="node6" class="node">
<title>ref_AppliedPTransform_Create&#45;Filter&#45;Value&#45;approved_12</title>
<g id="a_node6"><a xlink:href="javascript:click('ref_AppliedPTransform_Create-Filter-Value-approved_12')" xlink:title="Create Filter Value: approved">
<path fill="#fff6dd" stroke="#ff570b" d="M216,-396C216,-396 12,-396 12,-396 6,-396 0,-390 0,-384 0,-384 0,-372 0,-372 0,-366 6,-360 12,-360 12,-360 216,-360 216,-360 222,-360 228,-366 228,-372 228,-372 228,-384 228,-384 228,-390 222,-396 216,-396"/>
<text text-anchor="middle" x="114" y="-374.3" font-family="Times,serif" font-size="14.00">Create Filter Value: approved</text>
</a>
</g>
</g>
<!-- ref_AppliedPTransform_Create&#45;Filter&#45;Value&#45;approved_12&#45;&gt;ref_AppliedPTransform_Filter&#45;Branch&#45;branch_1&#45;approved_17 -->
<g id="edge5" class="edge">
<title>ref_AppliedPTransform_Create&#45;Filter&#45;Value&#45;approved_12&#45;&gt;ref_AppliedPTransform_Filter&#45;Branch&#45;branch_1&#45;approved_17</title>
<path fill="none" stroke="#ff570b" stroke-dasharray="5,2" d="M142.38,-359.88C157.54,-350.72 176.41,-339.34 192.74,-329.48"/>
<polygon fill="#ff570b" stroke="#ff570b" points="194.75,-332.35 201.51,-324.19 191.14,-326.36 194.75,-332.35"/>
</g>
<!-- ref_AppliedPTransform_Join&#45;Terminate&#45;Nodes_26 -->
<g id="node10" class="node">
<title>ref_AppliedPTransform_Join&#45;Terminate&#45;Nodes_26</title>
<g id="a_node10"><a xlink:href="javascript:click('ref_AppliedPTransform_Join-Terminate-Nodes_26')" xlink:title="Join Terminate Nodes">
<path fill="#fff6dd" stroke="#ff570b" d="M569,-180C569,-180 423,-180 423,-180 417,-180 411,-174 411,-168 411,-168 411,-156 411,-156 411,-150 417,-144 423,-144 423,-144 569,-144 569,-144 575,-144 581,-150 581,-156 581,-156 581,-168 581,-168 581,-174 575,-180 569,-180"/>
<text text-anchor="middle" x="496" y="-158.3" font-family="Times,serif" font-size="14.00">Join Terminate Nodes</text>
</a>
</g>
</g>
<!-- ref_AppliedPTransform_Terminate&#45;approved_24&#45;&gt;ref_AppliedPTransform_Join&#45;Terminate&#45;Nodes_26 -->
<g id="edge9" class="edge">
<title>ref_AppliedPTransform_Terminate&#45;approved_24&#45;&gt;ref_AppliedPTransform_Join&#45;Terminate&#45;Nodes_26</title>
<path fill="none" stroke="#ff570b" d="M329.54,-215.97C360.54,-206.1 399.76,-193.62 432.34,-183.25"/>
<polygon fill="#ff570b" stroke="#ff570b" points="433.75,-186.47 442.22,-180.11 431.63,-179.8 433.75,-186.47"/>
</g>
<!-- ref_AppliedPTransform_Create&#45;Filter&#45;Value&#45;denied_18 -->
<g id="node8" class="node">
<title>ref_AppliedPTransform_Create&#45;Filter&#45;Value&#45;denied_18</title>
<g id="a_node8"><a xlink:href="javascript:click('ref_AppliedPTransform_Create-Filter-Value-denied_18')" xlink:title="Create Filter Value: denied">
<path fill="#fff6dd" stroke="#ff570b" d="M603.5,-396C603.5,-396 418.5,-396 418.5,-396 412.5,-396 406.5,-390 406.5,-384 406.5,-384 406.5,-372 406.5,-372 406.5,-366 412.5,-360 418.5,-360 418.5,-360 603.5,-360 603.5,-360 609.5,-360 615.5,-366 615.5,-372 615.5,-372 615.5,-384 615.5,-384 615.5,-390 609.5,-396 603.5,-396"/>
<text text-anchor="middle" x="511" y="-374.3" font-family="Times,serif" font-size="14.00">Create Filter Value: denied</text>
</a>
</g>
</g>
<!-- ref_AppliedPTransform_Create&#45;Filter&#45;Value&#45;denied_18&#45;&gt;ref_AppliedPTransform_Filter&#45;Branch&#45;branch_1&#45;denied_23 -->
<g id="edge7" class="edge">
<title>ref_AppliedPTransform_Create&#45;Filter&#45;Value&#45;denied_18&#45;&gt;ref_AppliedPTransform_Filter&#45;Branch&#45;branch_1&#45;denied_23</title>
<path fill="none" stroke="#ff570b" stroke-dasharray="5,2" d="M507.29,-359.7C505.64,-351.98 503.65,-342.71 501.81,-334.11"/>
<polygon fill="#ff570b" stroke="#ff570b" points="505.18,-333.15 499.67,-324.1 498.34,-334.61 505.18,-333.15"/>
</g>
<!-- ref_AppliedPTransform_Terminate&#45;denied_25&#45;&gt;ref_AppliedPTransform_Join&#45;Terminate&#45;Nodes_26 -->
<g id="edge10" class="edge">
<title>ref_AppliedPTransform_Terminate&#45;denied_25&#45;&gt;ref_AppliedPTransform_Join&#45;Terminate&#45;Nodes_26</title>
<path fill="none" stroke="#ff570b" d="M496,-215.7C496,-207.98 496,-198.71 496,-190.11"/>
<polygon fill="#ff570b" stroke="#ff570b" points="499.5,-190.1 496,-180.1 492.5,-190.1 499.5,-190.1"/>
</g>
<!-- ref_AppliedPTransform_Join&#45;Terminate&#45;Nodes_26&#45;&gt;ref_AppliedPTransform_Group&#45;Results_27 -->
<g id="edge11" class="edge">
<title>ref_AppliedPTransform_Join&#45;Terminate&#45;Nodes_26&#45;&gt;ref_AppliedPTransform_Group&#45;Results_27</title>
<path fill="none" stroke="#ff570b" d="M514.29,-143.7C523.43,-135.05 534.64,-124.45 544.6,-115.03"/>
<polygon fill="#ff570b" stroke="#ff570b" points="547.06,-117.52 551.92,-108.1 542.25,-112.43 547.06,-117.52"/>
</g>
</g>
</svg>
